<svg width="861" height="407" viewBox="0 0 861 407" fill="none" xmlns="http://www.w3.org/2000/svg">
<path d="M6.47447 368.991L36.2843 400.613L820.542 400.613L853.147 368.991L853.146 32.6226L820.542 1H36.2838L6.47398 31.6925L6.47447 368.991Z" fill="#003164" stroke="url(#paint0_linear_0_54)" stroke-width="1.82472"/>
<path d="M830.335 390.578L836.721 395.14L859.53 373.243V364.119M854.056 66.6902L859.53 72.1644V364.119M854.056 66.6902V53.9172M854.056 66.6902V364.119M854.056 53.9172L858.618 59.3914V37.4947L854.056 33.8453V53.9172ZM854.056 364.119H859.53M854.056 364.119V368.681" stroke="#136AA0" stroke-width="1.82472"/>
<path d="M30.1955 390.578L23.809 395.14L1.00002 373.243V364.119M6.47418 66.6902L1.00002 72.1644V364.119M6.47418 66.6902V53.9172M6.47418 66.6902V364.119M6.47418 53.9172L1.91238 59.3914V37.4947L6.47418 33.8453V53.9172ZM6.47418 364.119H1.00002M6.47418 364.119V368.681" stroke="#136AA0" stroke-width="1.82472"/>
<path d="M17.4226 356.82L46.6181 387.84H809.351L841.283 356.82V42.9683L809.351 11.9481H46.6181L17.4226 42.0559V356.82Z" fill="#00152C" stroke="url(#paint1_linear_0_54)" stroke-width="1.82472"/>
<path d="M105.009 407L109.571 399.701H44.7935L13.7733 367.768V356.82H4.64967V369.593L41.1441 407H105.009Z" fill="#189BFA"/>
<path d="M751.872 407L747.31 399.701H812.088L844.933 367.768V356.82H854.056V369.593L815.737 407H751.872Z" fill="#189BFA"/>
<defs>
<linearGradient id="paint0_linear_0_54" x1="853.147" y1="200.807" x2="6.47398" y2="200.807" gradientUnits="userSpaceOnUse">
<stop stop-color="#07466D"/>
<stop offset="0.5" stop-color="#0D87D3"/>
<stop offset="1" stop-color="#07466D"/>
</linearGradient>
<linearGradient id="paint1_linear_0_54" x1="841.283" y1="199.894" x2="17.4226" y2="199.894" gradientUnits="userSpaceOnUse">
<stop stop-color="#07466D"/>
<stop offset="0.5" stop-color="#0D87D3"/>
<stop offset="1" stop-color="#07466D"/>
</linearGradient>
</defs>
</svg>
