<svg width="34" height="36" viewBox="0 0 34 36" fill="none" xmlns="http://www.w3.org/2000/svg">
<rect width="34" height="36" fill="#189BFA"/>
<path d="M17.1431 24.2857C17.7493 24.2857 18.3307 24.0449 18.7593 23.6162C19.188 23.1876 19.4288 22.6062 19.4288 22C19.4288 21.3938 19.188 20.8124 18.7593 20.3838C18.3307 19.9551 17.7493 19.7143 17.1431 19.7143C16.5369 19.7143 15.9555 19.9551 15.5268 20.3838C15.0982 20.8124 14.8574 21.3938 14.8574 22C14.8574 22.6062 15.0982 23.1876 15.5268 23.6162C15.9555 24.0449 16.5369 24.2857 17.1431 24.2857ZM24.0002 14C24.6064 14 25.1878 14.2408 25.6165 14.6695C26.0451 15.0981 26.2859 15.6795 26.2859 16.2857V27.7143C26.2859 28.3205 26.0451 28.9019 25.6165 29.3305C25.1878 29.7592 24.6064 30 24.0002 30H10.2859C9.67972 30 9.09834 29.7592 8.66968 29.3305C8.24103 28.9019 8.00021 28.3205 8.00021 27.7143V16.2857C8.00021 15.6795 8.24103 15.0981 8.66968 14.6695C9.09834 14.2408 9.67972 14 10.2859 14H11.4288V11.7143C11.4288 10.1988 12.0308 8.74531 13.1025 7.67368C14.1741 6.60204 15.6275 6 17.1431 6C17.8935 6 18.6365 6.1478 19.3298 6.43497C20.0231 6.72214 20.6531 7.14306 21.1837 7.67368C21.7143 8.2043 22.1352 8.83423 22.4224 9.52752C22.7096 10.2208 22.8574 10.9639 22.8574 11.7143V14H24.0002ZM17.1431 8.28571C16.2338 8.28571 15.3617 8.64694 14.7187 9.28992C14.0757 9.9329 13.7145 10.805 13.7145 11.7143V14H20.5716V11.7143C20.5716 10.805 20.2104 9.9329 19.5674 9.28992C18.9245 8.64694 18.0524 8.28571 17.1431 8.28571Z" fill="white"/>
</svg>
